HIERARCHY
ROOT Hips
{
	OFFSET -0.001795 -0.223333 0.028219
	CHANNELS 6 Xposition Yposition Zposition Zrotation Yrotation Xrotation 
	JOINT LeftUpLeg
	{
		OFFSET 0.069520 -0.091406 -0.006815
		CHANNELS 3 Zrotation Yrotation Xrotation
		JOINT LeftLeg
		{
			OFFSET 0.034277 -0.375199 -0.004496
			CHANNELS 3 Zrotation Yrotation Xrotation
			JOINT LeftFoot
			{
				OFFSET -0.013596 -0.397961 -0.043693
				CHANNELS 3 Zrotation Yrotation Xrotation
				JOINT LeftToe
				{
					OFFSET 0.026358 -0.055791 0.119288
					CHANNELS 3 Zrotation Yrotation Xrotation
					End Site
					{
						OFFSET 0.000000 0.000000 0.000000
					}
				}
			}
		}
	}
	JOINT RightUpLeg
	{
		OFFSET -0.067670 -0.090522 -0.004320
		CHANNELS 3 Zrotation Yrotation Xrotation
		JOINT RightLeg
		{
			OFFSET -0.038290 -0.382569 -0.008850
			CHANNELS 3 Zrotation Yrotation Xrotation
			JOINT RightFoot
			{
				OFFSET 0.015774 -0.398415 -0.042312
				CHANNELS 3 Zrotation Yrotation Xrotation
				JOINT RightToe
				{
					OFFSET -0.025372 -0.048144 0.123348
					CHANNELS 3 Zrotation Yrotation Xrotation
					End Site
					{
						OFFSET 0.000000 0.000000 0.000000
					}
				}
			}
		}
	}
	JOINT Spine
	{
		OFFSET -0.002533 0.108963 -0.026696
		CHANNELS 3 Zrotation Yrotation Xrotation
		JOINT Spine1
		{
			OFFSET 0.005487 0.135180 0.001092
			CHANNELS 3 Zrotation Yrotation Xrotation
			JOINT Spine2
			{
				OFFSET 0.001457 0.052922 0.025425
				CHANNELS 3 Zrotation Yrotation Xrotation
				JOINT Neck
				{
					OFFSET -0.002778 0.213870 -0.042857
					CHANNELS 3 Zrotation Yrotation Xrotation
					JOINT Head
					{
						OFFSET 0.005152 0.064970 0.051349
						CHANNELS 3 Zrotation Yrotation Xrotation
						End Site
						{
							OFFSET 0.000000 0.000000 0.000000
						}
					}
				}
				JOINT LeftShoulder
				{
					OFFSET 0.078845 0.121749 -0.034090
					CHANNELS 3 Zrotation Yrotation Xrotation
					JOINT LeftArm
					{
						OFFSET 0.090977 0.030469 -0.008868
						CHANNELS 3 Zrotation Yrotation Xrotation
						JOINT LeftForeArm
						{
							OFFSET 0.259612 -0.012772 -0.027456
							CHANNELS 3 Zrotation Yrotation Xrotation
							JOINT LeftHand
							{
								OFFSET 0.249234 0.008986 -0.001171
								CHANNELS 3 Zrotation Yrotation Xrotation
								End Site
								{
									OFFSET 0.000000 0.000000 0.000000
								}
							}
						}
					}
				}
				JOINT RightShoulder
				{
					OFFSET -0.081759 0.118833 -0.038615
					CHANNELS 3 Zrotation Yrotation Xrotation
					JOINT RightArm
					{
						OFFSET -0.096012 0.032551 -0.009143
						CHANNELS 3 Zrotation Yrotation Xrotation
						JOINT RightForeArm
						{
							OFFSET -0.253742 -0.013329 -0.021401
							CHANNELS 3 Zrotation Yrotation Xrotation
							JOINT RightHand
							{
								OFFSET -0.255298 0.007772 -0.005559
								CHANNELS 3 Zrotation Yrotation Xrotation
								End Site
								{
									OFFSET 0.000000 0.000000 0.000000
								}
							}
						}
					}
				}
			}
		}
	}
}
MOTION
Frames: 10
Frame Time: 0.050000
0.000000 0.908273 0.000000 -1.118168 1.485757 3.075508 7.049024 -0.961340 -24.782994 -3.132687 -0.006908 30.037666 2.464558 5.086884 -0.441287 0.000000 0.000000 0.000000 -3.400462 2.017234 -28.473497 2.650262 0.086467 33.966875 -3.387614 -9.131259 2.117101 0.000000 0.000000 0.000000 -0.136320 -0.934636 21.426381 -0.013557 0.120128 -3.679281 0.550042 0.321336 17.898947 1.268374 -0.353555 -7.641064 0.000000 0.000000 0.000000 3.174098 -5.396121 1.917545 -28.184075 -24.132494 0.763125 125.585703 -52.121907 -81.351720 0.000000 0.000000 0.000000 -13.915509 4.478293 1.567160 28.915330 20.178160 0.708357 -111.622819 48.669232 -59.973773 0.000000 0.000000 0.000000 
-0.002478 0.906011 -0.001252 -1.526019 0.905354 3.336845 8.530757 -0.644217 -25.207536 -4.362772 0.536019 31.195098 2.846826 5.601298 -1.297503 0.000000 0.000000 0.000000 -2.738076 2.254403 -29.042841 2.426997 0.268556 34.831603 -2.684353 -7.535896 2.250417 0.000000 0.000000 0.000000 -0.137783 -0.903598 21.248353 -0.699563 0.408130 -3.457062 1.645617 0.802734 18.642143 0.445188 -0.020100 -3.901540 0.000000 0.000000 0.000000 1.103882 -3.289804 1.178779 -26.717008 -23.990105 0.515595 125.645536 -50.874922 -79.916278 0.000000 0.000000 0.000000 -13.680176 2.469259 1.070249 27.853614 20.044207 0.509085 -115.043677 52.763001 -68.187365 0.000000 0.000000 0.000000 
-0.004493 0.902958 -0.002536 -1.103124 2.018937 2.906907 7.996194 -0.835577 -25.601174 -3.976416 0.232388 32.877816 2.443107 4.104583 -2.813574 0.000000 0.000000 0.000000 -3.904949 1.906051 -29.256585 3.754820 -0.468856 35.749235 -2.979661 -7.717891 0.606143 0.000000 0.000000 0.000000 0.675342 -1.164222 22.077792 -0.376299 0.312549 -4.769569 0.056924 0.499792 20.418784 1.430108 -0.699572 -5.209027 0.000000 0.000000 0.000000 0.458932 -3.526797 1.233383 -24.693811 -24.493875 0.298945 121.673273 -48.793179 -73.104333 0.000000 0.000000 0.000000 -12.444638 1.793274 0.777750 25.139435 18.747066 -0.043572 -119.235709 52.109179 -71.382107 0.000000 0.000000 0.000000 
-0.006446 0.900131 -0.003801 -1.070457 1.756659 2.714823 7.950016 -0.860201 -26.793002 -4.167527 0.326754 35.025325 2.181500 3.823527 -2.093838 0.000000 0.000000 0.000000 -4.107270 1.925504 -30.107903 4.188027 -0.640653 37.359434 -2.652021 -6.788532 0.215433 0.000000 0.000000 0.000000 0.411647 -1.083160 21.891618 -0.871296 0.498199 -3.747055 -0.043738 -0.231747 20.881198 0.479957 -0.059376 -4.414413 0.000000 0.000000 0.000000 1.461655 -1.820268 0.694257 -24.374943 -24.184299 0.220059 120.002014 -47.582288 -69.305256 0.000000 0.000000 0.000000 -12.587194 -0.253403 0.417566 23.680274 19.675658 0.004529 -117.719838 54.789999 -74.188622 0.000000 0.000000 0.000000 
-0.008039 0.897781 -0.004909 -0.909882 1.809997 2.059405 7.540751 -0.952857 -27.045442 -3.917344 0.190747 36.055340 2.561454 4.811538 -1.700404 0.000000 0.000000 0.000000 -4.370578 1.848445 -30.068942 4.674377 -0.876887 37.745315 -2.884044 -7.555689 0.876404 0.000000 0.000000 0.000000 0.250078 -1.113595 23.102603 -1.245036 0.669592 -4.123881 -0.323667 -0.828115 21.149974 -0.263039 0.480696 -3.895604 0.000000 0.000000 0.000000 1.296244 -1.671652 0.630899 -22.893219 -24.339797 0.110431 119.748838 -46.627871 -67.594607 0.000000 0.000000 0.000000 -13.409252 -0.198785 0.527263 22.716219 18.631155 -0.218860 -122.388856 55.051389 -80.209599 0.000000 0.000000 0.000000 
-0.009291 0.895735 -0.005789 -0.795037 1.921335 1.846851 7.481663 -0.983640 -27.389981 -4.422156 0.393906 36.811292 2.808241 5.411037 -1.531041 0.000000 0.000000 0.000000 -4.357611 1.884054 -30.882395 4.330404 -0.749379 39.195151 -2.603571 -6.672307 0.271700 0.000000 0.000000 0.000000 0.006824 -1.078912 23.374325 -1.133755 0.625906 -4.264883 -0.554155 -1.197972 21.689776 -0.289284 0.468077 -3.779259 0.000000 0.000000 0.000000 1.965268 -1.885446 0.717078 -22.265359 -24.234753 0.030555 120.539904 -46.980101 -68.720542 0.000000 0.000000 0.000000 -14.902837 -0.808497 0.487019 20.934779 17.731418 -0.425982 -126.834207 55.042262 -85.793962 0.000000 0.000000 0.000000 
-0.010462 0.893210 -0.006072 -0.577196 1.913667 1.548502 7.485785 -0.975672 -27.305858 -4.345555 0.354048 37.333495 2.894903 5.623530 -1.457027 0.000000 0.000000 0.000000 -4.573595 1.843905 -31.207665 4.652079 -0.918045 40.269196 -2.892239 -7.264833 -0.107939 0.000000 0.000000 0.000000 -0.137679 -1.059050 23.672881 -1.441678 0.757726 -4.151569 -1.237975 -2.002384 21.330307 -0.681497 0.732760 -3.655998 0.000000 0.000000 0.000000 2.590538 -2.495607 0.913382 -20.466786 -24.544057 -0.035822 123.373613 -48.936596 -73.927023 0.000000 0.000000 0.000000 -15.926049 -0.929174 0.650698 18.355684 16.745050 -0.606669 -131.324729 54.732952 -91.917853 0.000000 0.000000 0.000000 
-0.011719 0.890802 -0.005902 -0.616540 1.632790 0.986782 7.824548 -0.867905 -27.190978 -4.693264 0.547775 38.421555 2.991512 5.692300 -1.833360 0.000000 0.000000 0.000000 -4.294308 1.945658 -31.359222 4.632913 -0.880255 41.882780 -3.218905 -7.970983 -0.454487 0.000000 0.000000 0.000000 -0.139984 -1.040576 23.641669 -1.562692 0.803086 -3.710412 -1.935983 -2.436400 21.058593 -1.169264 1.094245 -3.303474 0.000000 0.000000 0.000000 3.783073 -3.898366 1.344580 -18.925617 -25.370302 -0.020359 126.000460 -51.496750 -79.944256 0.000000 0.000000 0.000000 -17.760457 -0.844281 0.873820 16.030605 15.164900 -0.765620 -133.731013 53.645674 -94.442489 0.000000 0.000000 0.000000 
-0.013278 0.887405 -0.005054 -0.528656 1.659880 0.461236 7.849647 -0.852822 -27.049017 -4.687018 0.528746 39.835543 3.058898 5.691211 -2.224318 0.000000 0.000000 0.000000 -4.171114 1.973496 -31.398026 5.033247 -1.112944 43.220287 -3.811316 -9.355763 -0.780101 0.000000 0.000000 0.000000 -0.477099 -0.970420 23.726450 -1.661629 0.850399 -3.842668 -2.542895 -3.303930 21.194297 -2.184646 1.901734 -3.203324 0.000000 0.000000 0.000000 5.212952 -5.177562 1.666537 -17.057203 -25.902202 -0.098214 128.774212 -53.706635 -85.583083 0.000000 0.000000 0.000000 -19.141923 -0.708617 1.124759 13.444992 14.974813 -0.809877 -133.656728 52.836404 -94.356141 0.000000 0.000000 0.000000 
-0.014859 0.884645 -0.003522 -0.453354 1.227219 -0.143187 8.286206 -0.704005 -26.736082 -4.929345 0.719381 40.775756 3.137855 5.700032 -2.678323 0.000000 0.000000 0.000000 -3.882959 2.071875 -31.181058 5.240369 -1.144645 44.130706 -4.106585 -9.949250 -1.332051 0.000000 0.000000 0.000000 -0.932770 -0.841684 23.588188 -1.948638 0.968346 -3.255821 -2.746904 -3.604364 20.464613 -3.258503 2.791309 -2.718878 0.000000 0.000000 0.000000 7.254293 -6.803776 2.025601 -15.915860 -26.575833 -0.065155 129.899491 -54.675894 -87.809228 0.000000 0.000000 0.000000 -20.981868 -0.087873 1.464247 11.707416 14.630017 -0.813649 -132.693736 52.740779 -93.624768 0.000000 0.000000 0.000000 
